<svg width="3304" height="887" viewBox="0 0 3304 887" fill="none" xmlns="http://www.w3.org/2000/svg">
<rect x="-0.000976562" width="835" height="835" rx="100" fill="url(#paint0_linear_571_2)"/>
<rect x="157.993" y="0.00390625" width="57.9268" height="260.652" transform="rotate(37.3132 157.993 0.00390625)" fill="#A0A0A0"/>
<rect x="366.739" y="0.00390625" width="57.9268" height="605.02" transform="rotate(37.3132 366.739 0.00390625)" fill="#A0A0A0"/>
<rect x="592.295" width="57.9268" height="967.159" transform="rotate(37.3132 592.295 0)" fill="#A0A0A0"/>
<rect width="57.9268" height="203.558" transform="matrix(-0.791364 -0.611345 -0.611345 0.791364 834.511 673.918)" fill="#A0A0A0"/>
<rect width="57.9268" height="547.506" transform="matrix(-0.791364 -0.611345 -0.611345 0.791364 834.994 401.723)" fill="#A0A0A0"/>
<rect width="57.9268" height="918.391" transform="matrix(-0.791364 -0.611345 -0.611345 0.791364 835.052 108.211)" fill="#A0A0A0"/>
<path d="M1181.5 678.344V626.588H1232.83V523.504H1181.5V472.176H1026.66V678.344H1181.5ZM1181.5 369.092V317.336H1232.83V214.252H1181.5V162.924H1026.66V369.092H1181.5ZM924.002 781V59.8398H1232.83V111.168H1284.58V162.924H1335.91V369.092H1284.58V472.176H1335.91V678.344H1284.58V729.672H1232.83V781H924.002ZM1387.67 781V59.8398H1490.32V678.344H1799.57V781H1387.67ZM1953.99 781V729.672H1902.66V678.344H1851.33V59.8398H1953.99V626.588H2005.74V678.344H2160.15V626.588H2211.91V59.8398H2314.99V678.344H2263.24V729.672H2211.91V781H1953.99ZM2623.82 369.092V317.336H2675.15V214.252H2623.82V162.924H2468.98V369.092H2623.82ZM2366.32 781V59.8398H2675.15V111.168H2726.9V162.924H2778.23V369.092H2726.9V420.42H2675.15V472.176H2572.06V523.504H2623.82V575.26H2675.15V626.588H2726.9V678.344H2778.23V781H2675.15V729.672H2623.82V678.344H2572.06V626.588H2520.73V575.26H2468.98V781H2366.32ZM3087.48 369.092V317.336H3138.81V214.252H3087.48V162.924H2932.64V369.092H3087.48ZM2829.99 781V59.8398H3138.81V111.168H3190.57V162.924H3241.89V369.092H3190.57V420.42H3138.81V472.176H3035.73V523.504H3087.48V575.26H3138.81V626.588H3190.57V678.344H3241.89V781H3138.81V729.672H3087.48V678.344H3035.73V626.588H2984.4V575.26H2932.64V781H2829.99Z" fill="url(#paint1_linear_571_2)"/>
<defs>
<linearGradient id="paint0_linear_571_2" x1="417.499" y1="0" x2="417.499" y2="835" gradientUnits="userSpaceOnUse">
<stop offset="0.105769" stop-color="#E7E7E7"/>
<stop offset="1" stop-color="#A0A0A0"/>
</linearGradient>
<linearGradient id="paint1_linear_571_2" x1="2114" y1="60" x2="2114" y2="887" gradientUnits="userSpaceOnUse">
<stop stop-color="#E7E7E7"/>
<stop offset="1" stop-color="#CDCDCD"/>
</linearGradient>
</defs>
</svg>
